solid shutter_burncam
facet normal 0.8660254033599809 0.4999999546665333 -0.00021463608125832416
  outer loop
    vertex -345.1590934075897 42.618888660928924 0.046294076689506164
    vertex -345.0001681818589 42.4139166046591 5.045905991886807
    vertex -345.0001748172093 42.41178194088041 0.04638229483982881
  endloop
endfacet
facet normal 0.7071067805868281 0.7071067169299377 -0.00030285424957824595
  outer loop
    vertex -345.0001681818589 42.4139166046591 5.045905991886807
    vertex -345.1590934075897 42.618888660928924 0.046294076689506164
    vertex -345.15908677223945 42.62102332470763 5.0458177737364815
  endloop
endfacet
facet normal -0.4999999992656848 -0.8660253249838659 0.0003704334012693947
  outer loop
    vertex -343.7930682834037 43.98491366213969 0.04570900732618966
    vertex -344.03424255387506 44.08694871888617 5.045190369654239
    vertex -344.03424918922536 44.08481405510747 0.04566667260725988
  endloop
endfacet
facet normal -0.25881904428370756 -0.9659257383145664 0.0004127681288381895
  outer loop
    vertex -344.03424255387506 44.08694871888617 5.045190369654239
    vertex -343.7930682834037 43.98491366213969 0.04570900732618966
    vertex -343.7930616480534 43.98704832591838 5.045232704373168
  endloop
endfacet
facet normal 8.473839237956781e-10 -0.9999999088468577 0.00042697339056209745
  outer loop
    vertex -344.2930615462506 44.12102288247309 5.045176164395424
    vertex -344.5518871739187 44.08481405496216 0.0456673596146606
    vertex -344.2930681816009 44.11888821869438 0.04565246734844666
  endloop
endfacet
facet normal 0.2588190459208601 -0.9659257381692267 0.00041208112132451376
  outer loop
    vertex -344.5518871739187 44.08481405496216 0.0456673596146606
    vertex -344.2930615462506 44.12102288247309 5.045176164395424
    vertex -344.55188053856847 44.08694871874088 5.045191056661637
  endloop
endfacet
facet normal -0.9794738213678965 -0.20157139088230044 8.736558231482555e-05
  outer loop
    vertex -346.76752453623413 25.258553815070243 5.053709068869792
    vertex -354.1452280947239 61.10604834997445 0.038412477082651796
    vertex -346.76753117221625 25.2564189481174 0.05370952463990553
  endloop
endfacet
facet normal -0.9794738213678965 -0.20157139088230044 8.736558231482555e-05
  outer loop
    vertex -354.1452280947239 61.10604834997445 0.038412477082651796
    vertex -346.76752453623413 25.258553815070243 5.053709068869792
    vertex -354.14522145874184 61.10818321692726 5.0384120213125385
  endloop
endfacet
facet normal 0.9764853368990568 -0.21558380872669108 9.075257021116194e-05
  outer loop
    vertex -334.14561457251943 60.98171427679796 0.03843902101063521
    vertex -342.03639673433946 25.242583520677098 5.0537096086247635
    vertex -342.03640337032147 25.24044865372438 0.05371006439487597
  endloop
endfacet
facet normal 0.9764853368990568 -0.21558380872669108 9.075257021116194e-05
  outer loop
    vertex -342.03639673433946 25.242583520677098 5.0537096086247635
    vertex -334.14561457251943 60.98171427679796 0.03843902101063521
    vertex -334.1456079365375 60.98384914375077 5.038438565240522
  endloop
endfacet
facet normal -1.3271964076649685e-06 -0.00042697339055131273 -0.9999999088459771
  outer loop
    vertex -388.6845525412355 107.2488848920201 0.0187565523902516
    vertex -387.11829492963153 93.24038213159226 0.024735732123969477
    vertex -388.93898161666635 104.86859053955406 0.019773212510460835
  endloop
endfacet
facet normal -1.3271964076649685e-06 -0.00042697339055131273 -0.9999999088459771
  outer loop
    vertex -387.11829492963153 93.24038213159226 0.024735732123969477
    vertex -388.6845525412355 107.2488848920201 0.0187565523902516
    vertex -387.6880278387871 116.57180569938627 0.014774590336312187
  endloop
endfacet
facet normal -1.3271964076649685e-06 -0.00042697339055131273 -0.9999999088459771
  outer loop
    vertex -387.11829492963153 93.24038213159226 0.024735732123969477
    vertex -387.6880278387871 116.57180569938627 0.014774590336312187
    vertex -383.4506840286573 127.55247283842384 0.010080513442074961
  endloop
endfacet
facet normal -1.3271964076649685e-06 -0.00042697339055131273 -0.9999999088459771
  outer loop
    vertex -387.11829492963153 93.24038213159226 0.024735732123969477
    vertex -383.4506840286573 127.55247283842384 0.010080513442074961
    vertex -382.3500445665773 82.47962366198031 0.029323961666126285
  endloop
endfacet
facet normal -1.3271964076649685e-06 -0.00042697339055131273 -0.9999999088459771
  outer loop
    vertex -382.3500445665773 82.47962366198031 0.029323961666126285
    vertex -383.4506840286573 127.55247283842384 0.010080513442074961
    vertex -376.5157181643958 137.06227763755172 0.0060108754107643
  endloop
endfacet
facet normal -1.3271964076649685e-06 -0.00042697339055131273 -0.9999999088459771
  outer loop
    vertex -382.3500445665773 82.47962366198031 0.029323961666126285
    vertex -376.5157181643958 137.06227763755172 0.0060108754107643
    vertex -374.95917890983947 73.31964303742828 0.03322522087604199
  endloop
endfacet
facet normal -1.3271964076649685e-06 -0.00042697339055131273 -0.9999999088459771
  outer loop
    vertex -374.95917890983947 73.31964303742828 0.03322522087604199
    vertex -376.5157181643958 137.06227763755172 0.0060108754107643
    vertex -367.35573670907905 144.4531426154048 0.002843015348816735
  endloop
endfacet
facet normal -1.3271964076649685e-06 -0.00042697339055131273 -0.9999999088459771
  outer loop
    vertex -374.95917890983947 73.31964303742828 0.03322522087604199
    vertex -367.35573670907905 144.4531426154048 0.002843015348816735
    vertex -365.44937323994134 66.38467779991566 0.03617364538569472
  endloop
endfacet
facet normal -1.3271964076649685e-06 -0.00042697339055131273 -0.9999999088459771
  outer loop
    vertex -365.44937323994134 66.38467779991566 0.03617364538569472
    vertex -367.35573670907905 144.4531426154048 0.002843015348816735
    vertex -356.5949772613017 149.2213925377244 0.0007928176843215226
  endloop
endfacet
facet normal -1.3271964076649685e-06 -0.00042697339055131273 -0.9999999088459771
  outer loop
    vertex -365.44937323994134 66.38467779991566 0.03617364538569472
    vertex -356.5949772613017 149.2213925377244 0.0007928176843215226
    vertex -354.1452280947239 61.10604834997445 0.038412477082651796
  endloop
endfacet
facet normal -1.3271964076649685e-06 -0.00042697339055131273 -0.9999999088459771
  outer loop
    vertex -354.1452280947239 61.10604834997445 0.038412477082651796
    vertex -356.5949772613017 149.2213925377244 0.0007928176843215226
    vertex -344.966767794434 151.04207905220994 0.0
  endloop
endfacet
facet normal -1.3271964076649685e-06 -0.00042697339055131273 -0.9999999088459771
  outer loop
    vertex -354.1452280947239 61.10604834997445 0.038412477082651796
    vertex -344.966767794434 151.04207905220994 0.0
    vertex -346.76753117221625 25.2564189481174 0.05370952463990553
  endloop
endfacet
facet normal -1.3271964076649685e-06 -0.00042697339055131273 -0.9999999088459771
  outer loop
    vertex -346.76753117221625 25.2564189481174 0.05370952463990553
    vertex -344.966767794434 151.04207905220994 0.0
    vertex -345.29306797692055 43.118888513398765 0.046080767848344965
  endloop
endfacet
facet normal -1.3271964076649685e-06 -0.00042697339055131273 -0.9999999088459771
  outer loop
    vertex -345.29306797692055 43.118888513398765 0.046080767848344965
    vertex -344.966767794434 151.04207905220994 0.0
    vertex -345.2589938103744 43.377707482163096 0.04597021380252356
  endloop
endfacet
facet normal -1.3271964076649685e-06 -0.00042697339055131273 -0.9999999088459771
  outer loop
    vertex -345.2589938103744 43.377707482163096 0.04597021380252356
    vertex -344.966767794434 151.04207905220994 0.0
    vertex -345.15909340843723 43.61888836594383 0.045867103385984855
  endloop
endfacet
facet normal -1.3271964076649685e-06 -0.00042697339055131273 -0.9999999088459771
  outer loop
    vertex -345.15909340843723 43.61888836594383 0.045867103385984855
    vertex -344.966767794434 151.04207905220994 0.0
    vertex -345.0001748184076 43.82599508608156 0.0457784634032203
  endloop
endfacet
facet normal -1.3271964076649685e-06 -0.00042697339055131273 -0.9999999088459771
  outer loop
    vertex -345.0001748184076 43.82599508608156 0.0457784634032203
    vertex -344.966767794434 151.04207905220994 0.0
    vertex -344.7930680795709 43.98491366185897 0.04571033452257019
  endloop
endfacet
facet normal -1.3271964076649685e-06 -0.00042697339055131273 -0.9999999088459771
  outer loop
    vertex -344.7930680795709 43.98491366185897 0.04571033452257019
    vertex -344.966767794434 151.04207905220994 0.0
    vertex -343.5868353310865 150.89457843814668 6.114740146231367e-05
  endloop
endfacet
facet normal -1.3271964076649685e-06 -0.00042697339055131273 -0.9999999088459771
  outer loop
    vertex -344.7930680795709 43.98491366185897 0.04571033452257019
    vertex -343.5868353310865 150.89457843814668 6.114740146231367e-05
    vertex -344.5518871739187 44.08481405496216 0.0456673596146606
  endloop
endfacet
facet normal -1.3271964076649685e-06 -0.00042697339055131273 -0.9999999088459771
  outer loop
    vertex -344.5518871739187 44.08481405496216 0.0456673596146606
    vertex -343.5868353310865 150.89457843814668 6.114740146231367e-05
    vertex -344.2930681816009 44.11888821869438 0.04565246734844666
  endloop
endfacet
facet normal -1.3271964076649685e-06 -0.00042697339055131273 -0.9999999088459771
  outer loop
    vertex -344.2930681816009 44.11888821869438 0.04565246734844666
    vertex -343.5868353310865 150.89457843814668 6.114740146231367e-05
    vertex -344.03424918922536 44.08481405510747 0.04566667260725988
  endloop
endfacet
facet normal -1.3271964076649685e-06 -0.00042697339055131273 -0.9999999088459771
  outer loop
    vertex -344.03424918922536 44.08481405510747 0.04566667260725988
    vertex -343.5868353310865 150.89457843814668 6.114740146231367e-05
    vertex -343.7930682834037 43.98491366213969 0.04570900732618966
  endloop
endfacet
facet normal -1.3271964076649685e-06 -0.00042697339055131273 -0.9999999088459771
  outer loop
    vertex -343.7930682834037 43.98491366213969 0.04570900732618966
    vertex -343.5868353310865 150.89457843814668 6.114740146231367e-05
    vertex -343.5859615442978 43.82599508647854 0.0457765864641043
  endloop
endfacet
facet normal -1.3271964076649685e-06 -0.00042697339055131273 -0.9999999088459771
  outer loop
    vertex -343.5859615442978 43.82599508647854 0.0457765864641043
    vertex -343.5868353310865 150.89457843814668 6.114740146231367e-05
    vertex -342.5864732248545 150.7876499986222 0.0001054753268777464
  endloop
endfacet
facet normal -1.3271964076649685e-06 -0.00042697339055131273 -0.9999999088459771
  outer loop
    vertex -343.5859615442978 43.82599508647854 0.0457765864641043
    vertex -342.5864732248545 150.7876499986222 0.0001054753268777464
    vertex -343.4270429539172 43.61888836643004 0.04586480461442624
  endloop
endfacet
facet normal -1.3271964076649685e-06 -0.00042697339055131273 -0.9999999088459771
  outer loop
    vertex -343.4270429539172 43.61888836643004 0.04586480461442624
    vertex -342.5864732248545 150.7876499986222 0.0001054753268777464
    vertex -343.32714255157117 43.3777074827054 0.04596764985600754
  endloop
endfacet
facet normal -1.3271964076649685e-06 -0.00042697339055131273 -0.9999999088459771
  outer loop
    vertex -343.32714255157117 43.3777074827054 0.04596764985600754
    vertex -342.5864732248545 150.7876499986222 0.0001054753268777464
    vertex -343.2930683845864 43.11888851396019 0.04607811345558744
  endloop
endfacet
facet normal -1.3271964076649685e-06 -0.00042697339055131273 -0.9999999088459771
  outer loop
    vertex -346.76753117221625 25.2564189481174 0.05370952463990553
    vertex -345.2589938099358 42.86006954465356 0.046191231447925564
    vertex -342.03640337032147 25.24044865372438 0.05371006439487597
  endloop
endfacet
facet normal -1.3271964076649685e-06 -0.00042697339055131273 -0.9999999088459771
  outer loop
    vertex -345.2589938099358 42.86006954465356 0.046191231447925564
    vertex -346.76753117221625 25.2564189481174 0.05370952463990553
    vertex -345.29306797692055 43.118888513398765 0.046080767848344965
  endloop
endfacet
facet normal -1.3271964076649685e-06 -0.00042697339055131273 -0.9999999088459771
  outer loop
    vertex -342.03640337032147 25.24044865372438 0.05371006439487597
    vertex -345.2589938099358 42.86006954465356 0.046191231447925564
    vertex -345.1590934075897 42.618888660928924 0.046294076689506164
  endloop
endfacet
facet normal -1.3271964076649685e-06 -0.00042697339055131273 -0.9999999088459771
  outer loop
    vertex -342.03640337032147 25.24044865372438 0.05371006439487597
    vertex -345.1590934075897 42.618888660928924 0.046294076689506164
    vertex -345.0001748172093 42.41178194088041 0.04638229483982881
  endloop
endfacet
facet normal -1.3271964076649685e-06 -0.00042697339055131273 -0.9999999088459771
  outer loop
    vertex -342.03640337032147 25.24044865372438 0.05371006439487597
    vertex -345.0001748172093 42.41178194088041 0.04638229483982881
    vertex -344.79306807810326 42.25286336521928 0.046449873977742036
  endloop
endfacet
facet normal -1.3271964076649685e-06 -0.00042697339055131273 -0.9999999088459771
  outer loop
    vertex -342.03640337032147 25.24044865372438 0.05371006439487597
    vertex -344.79306807810326 42.25286336521928 0.046449873977742036
    vertex -344.5518871722816 42.152962972251494 0.04649220869667182
  endloop
endfacet
facet normal -1.3271964076649685e-06 -0.00042697339055131273 -0.9999999088459771
  outer loop
    vertex -342.03640337032147 25.24044865372438 0.05371006439487597
    vertex -344.5518871722816 42.152962972251494 0.04649220869667182
    vertex -344.2930681799061 42.11888880866458 0.04650641395548645
  endloop
endfacet
facet normal -1.3271964076649685e-06 -0.00042697339055131273 -0.9999999088459771
  outer loop
    vertex -342.03640337032147 25.24044865372438 0.05371006439487597
    vertex -344.2930681799061 42.11888880866458 0.04650641395548645
    vertex -344.0342491875882 42.15296297239679 0.04649152168927181
  endloop
endfacet
facet normal -1.3271964076649685e-06 -0.00042697339055131273 -0.9999999088459771
  outer loop
    vertex -342.03640337032147 25.24044865372438 0.05371006439487597
    vertex -344.0342491875882 42.15296297239679 0.04649152168927181
    vertex -343.7930682819361 42.252863365499984 0.046448546781362926
  endloop
endfacet
facet normal -1.3271964076649685e-06 -0.00042697339055131273 -0.9999999088459771
  outer loop
    vertex -342.03640337032147 25.24044865372438 0.05371006439487597
    vertex -343.7930682819361 42.252863365499984 0.046448546781362926
    vertex -343.5859615430993 42.41178194127739 0.0463804179007114
  endloop
endfacet
facet normal -1.3271964076649685e-06 -0.00042697339055131273 -0.9999999088459771
  outer loop
    vertex -342.03640337032147 25.24044865372438 0.05371006439487597
    vertex -343.5859615430993 42.41178194127739 0.0463804179007114
    vertex -343.4270429530697 42.61888866141514 0.04629177791794825
  endloop
endfacet
facet normal -1.3271964076649685e-06 -0.00042697339055131273 -0.9999999088459771
  outer loop
    vertex -342.03640337032147 25.24044865372438 0.05371006439487597
    vertex -343.4270429530697 42.61888866141514 0.04629177791794825
    vertex -343.3271425511325 42.86006954519587 0.04618866750140885
  endloop
endfacet
facet normal -1.3271964076649685e-06 -0.00042697339055131273 -0.9999999088459771
  outer loop
    vertex -342.03640337032147 25.24044865372438 0.05371006439487597
    vertex -343.3271425511325 42.86006954519587 0.04618866750140885
    vertex -343.2930683845864 43.11888851396019 0.04607811345558744
  endloop
endfacet
facet normal -1.3271964076649685e-06 -0.00042697339055131273 -0.9999999088459771
  outer loop
    vertex -342.03640337032147 25.24044865372438 0.05371006439487597
    vertex -343.2930683845864 43.11888851396019 0.04607811345558744
    vertex -342.5864732248545 150.7876499986222 0.0001054753268777464
  endloop
endfacet
facet normal -1.3271964076649685e-06 -0.00042697339055131273 -0.9999999088459771
  outer loop
    vertex -342.03640337032147 25.24044865372438 0.05371006439487597
    vertex -342.5864732248545 150.7876499986222 0.0001054753268777464
    vertex -333.2635515671184 149.79112538172598 0.0005185915108475547
  endloop
endfacet
facet normal -1.3271964076649685e-06 -0.00042697339055131273 -0.9999999088459771
  outer loop
    vertex -342.03640337032147 25.24044865372438 0.05371006439487597
    vertex -333.2635515671184 149.79112538172598 0.0005185915108475547
    vertex -334.14561457251943 60.98171427679796 0.03843902101063521
  endloop
endfacet
facet normal -1.3271964076649685e-06 -0.00042697339055131273 -0.9999999088459771
  outer loop
    vertex -334.14561457251943 60.98171427679796 0.03843902101063521
    vertex -333.2635515671184 149.79112538172598 0.0005185915108475547
    vertex -320.3765199556291 67.48531713612809 0.035643881099287324
  endloop
endfacet
facet normal -1.3271964076649685e-06 -0.00042697339055131273 -0.9999999088459771
  outer loop
    vertex -320.3765199556291 67.48531713612809 0.035643881099287324
    vertex -333.2635515671184 149.79112538172598 0.0005185915108475547
    vertex -322.282883424767 145.55378195161722 0.0023132510624079283
  endloop
endfacet
facet normal -1.3271964076649685e-06 -0.00042697339055131273 -0.9999999088459771
  outer loop
    vertex -320.3765199556291 67.48531713612809 0.035643881099287324
    vertex -322.282883424767 145.55378195161722 0.0023132510624079283
    vertex -312.7730777548688 138.61881671410455 0.005261675572062069
  endloop
endfacet
facet normal -1.3271964076649685e-06 -0.00042697339055131273 -0.9999999088459771
  outer loop
    vertex -320.3765199556291 67.48531713612809 0.035643881099287324
    vertex -312.7730777548688 138.61881671410455 0.005261675572062069
    vertex -311.2165385003124 74.87618211398123 0.032476021037341166
  endloop
endfacet
facet normal -1.3271964076649685e-06 -0.00042697339055131273 -0.9999999088459771
  outer loop
    vertex -311.2165385003124 74.87618211398123 0.032476021037341166
    vertex -312.7730777548688 138.61881671410455 0.005261675572062069
    vertex -305.382212098131 129.4588360895526 0.009162934781979182
  endloop
endfacet
facet normal -1.3271964076649685e-06 -0.00042697339055131273 -0.9999999088459771
  outer loop
    vertex -311.2165385003124 74.87618211398123 0.032476021037341166
    vertex -305.382212098131 129.4588360895526 0.009162934781979182
    vertex -304.2815726360509 84.3859869131092 0.028406383006030503
  endloop
endfacet
facet normal -1.3271964076649685e-06 -0.00042697339055131273 -0.9999999088459771
  outer loop
    vertex -304.2815726360509 84.3859869131092 0.028406383006030503
    vertex -305.382212098131 129.4588360895526 0.009162934781979182
    vertex -300.61396173507654 118.69807761994073 0.013751164324135989
  endloop
endfacet
facet normal -1.3271964076649685e-06 -0.00042697339055131273 -0.9999999088459771
  outer loop
    vertex -304.2815726360509 84.3859869131092 0.028406383006030503
    vertex -300.61396173507654 118.69807761994073 0.013751164324135989
    vertex -300.0442288259211 95.36665405214669 0.02371230611179328
  endloop
endfacet
facet normal -1.3271964076649685e-06 -0.00042697339055131273 -0.9999999088459771
  outer loop
    vertex -300.0442288259211 95.36665405214669 0.02371230611179328
    vertex -300.61396173507654 118.69807761994073 0.013751164324135989
    vertex -299.1622072680107 103.61834827967951 0.020187881312560774
  endloop
endfacet
facet normal -1.3271964076649685e-06 -0.00042697339055131273 -0.9999999088459771
  outer loop
    vertex -299.1622072680107 103.61834827967951 0.020187881312560774
    vertex -300.61396173507654 118.69807761994073 0.013751164324135989
    vertex -298.79327504804183 107.0698692119789 0.018713683937643926
  endloop
endfacet
facet normal 0.9999806761102221 -0.0062167036588261886 1.3271963820308851e-06
  outer loop
    vertex -305.81546970415195 129.9975148995526 4.008933872877205
    vertex -306.1146436579681 81.87445249178187 5.029481630086794
    vertex -306.11464498516443 81.8740255183913 4.029481721240816
  endloop
endfacet
facet normal 0.9999806761102221 -0.0062167036588261886 1.3271963820308851e-06
  outer loop
    vertex -306.1146436579681 81.87445249178187 5.029481630086794
    vertex -305.81546970415195 129.9975148995526 4.008933872877205
    vertex -305.81546837695544 129.9979418729432 5.008933781723182
  endloop
endfacet
facet normal 1.3271964077960671e-06 0.00042697339055130075 0.9999999088459771
  outer loop
    vertex -304.2815673272652 84.3876948066714 4.028406018389935
    vertex -305.81546970415195 129.9975148995526 4.008933872877205
    vertex -306.11464498516443 81.8740255183913 4.029481721240816
  endloop
endfacet
facet normal 1.3271964077960671e-06 0.00042697339055130075 0.9999999088459771
  outer loop
    vertex -305.81546970415195 129.9975148995526 4.008933872877205
    vertex -304.2815673272652 84.3876948066714 4.028406018389935
    vertex -305.3822067893451 129.46054398311483 4.009162570165885
  endloop
endfacet
facet normal 1.3271964077960671e-06 0.00042697339055130075 0.9999999088459771
  outer loop
    vertex -305.3822067893451 129.46054398311483 4.009162570165885
    vertex -304.2815673272652 84.3876948066714 4.028406018389935
    vertex -300.61395642629094 118.69978551350293 4.013750799708042
  endloop
endfacet
facet normal 1.3271964077960671e-06 0.00042697339055130075 0.9999999088459771
  outer loop
    vertex -300.61395642629094 118.69978551350293 4.013750799708042
    vertex -304.2815673272652 84.3876948066714 4.028406018389935
    vertex -300.0442235171355 95.36836194570893 4.023711941495699
  endloop
endfacet
facet normal 1.3271964077960671e-06 0.00042697339055130075 0.9999999088459771
  outer loop
    vertex -300.61395642629094 118.69978551350293 4.013750799708042
    vertex -300.0442235171355 95.36836194570893 4.023711941495699
    vertex -299.16220195922506 103.62005617324171 4.020187516696468
  endloop
endfacet
facet normal 1.3271964077960671e-06 0.00042697339055130075 0.9999999088459771
  outer loop
    vertex -300.61395642629094 118.69978551350293 4.013750799708042
    vertex -299.16220195922506 103.62005617324171 4.020187516696468
    vertex -298.79326973925623 107.0715771055411 4.018713319321549
  endloop
endfacet
facet normal 1.3271964076777347e-06 0.0004269733905513074 0.9999999088459771
  outer loop
    vertex -346.76752453623413 25.258553815070243 5.053709068869792
    vertex -345.2589871745855 42.862204208432274 5.0457149284949026
    vertex -345.2930613415703 43.12102317717747 5.045604464895321
  endloop
endfacet
facet normal 1.3271964076777347e-06 0.0004269733905513074 0.9999999088459771
  outer loop
    vertex -345.2589871745855 42.862204208432274 5.0457149284949026
    vertex -346.76752453623413 25.258553815070243 5.053709068869792
    vertex -342.03639673433946 25.242583520677098 5.0537096086247635
  endloop
endfacet
facet normal 1.3271964076777347e-06 0.0004269733905513074 0.9999999088459771
  outer loop
    vertex -345.2589871745855 42.862204208432274 5.0457149284949026
    vertex -342.03639673433946 25.242583520677098 5.0537096086247635
    vertex -345.15908677223945 42.62102332470763 5.0458177737364815
  endloop
endfacet
facet normal 1.3271964076777347e-06 0.0004269733905513074 0.9999999088459771
  outer loop
    vertex -345.15908677223945 42.62102332470763 5.0458177737364815
    vertex -342.03639673433946 25.242583520677098 5.0537096086247635
    vertex -345.0001681818589 42.4139166046591 5.045905991886807
  endloop
endfacet
facet normal 1.3271964076777347e-06 0.0004269733905513074 0.9999999088459771
  outer loop
    vertex -345.0001681818589 42.4139166046591 5.045905991886807
    vertex -342.03639673433946 25.242583520677098 5.0537096086247635
    vertex -344.7930614427529 42.25499802899798 5.045973571024718
  endloop
endfacet
facet normal 1.3271964076777347e-06 0.0004269733905513074 0.9999999088459771
  outer loop
    vertex -344.7930614427529 42.25499802899798 5.045973571024718
    vertex -342.03639673433946 25.242583520677098 5.0537096086247635
    vertex -344.5518805369313 42.15509763603018 5.046015905743649
  endloop
endfacet
facet normal 1.3271964076777347e-06 0.0004269733905513074 0.9999999088459771
  outer loop
    vertex -344.5518805369313 42.15509763603018 5.046015905743649
    vertex -342.03639673433946 25.242583520677098 5.0537096086247635
    vertex -344.29306154455577 42.12102347244328 5.046030111002463
  endloop
endfacet
facet normal 1.3271964076777347e-06 0.0004269733905513074 0.9999999088459771
  outer loop
    vertex -344.29306154455577 42.12102347244328 5.046030111002463
    vertex -342.03639673433946 25.242583520677098 5.0537096086247635
    vertex -344.03424255223797 42.1550976361755 5.046015218736249
  endloop
endfacet
facet normal 1.3271964076777347e-06 0.0004269733905513074 0.9999999088459771
  outer loop
    vertex -344.03424255223797 42.1550976361755 5.046015218736249
    vertex -342.03639673433946 25.242583520677098 5.0537096086247635
    vertex -343.7930616465858 42.25499802927869 5.0459722438283405
  endloop
endfacet
facet normal 1.3271964076777347e-06 0.0004269733905513074 0.9999999088459771
  outer loop
    vertex -343.7930616465858 42.25499802927869 5.0459722438283405
    vertex -342.03639673433946 25.242583520677098 5.0537096086247635
    vertex -343.585954907749 42.413916605056095 5.045904114947689
  endloop
endfacet
facet normal 1.3271964076777347e-06 0.0004269733905513074 0.9999999088459771
  outer loop
    vertex -343.585954907749 42.413916605056095 5.045904114947689
    vertex -342.03639673433946 25.242583520677098 5.0537096086247635
    vertex -343.42703631771946 42.621023325193846 5.045815474964924
  endloop
endfacet
facet normal 1.3271964076777347e-06 0.0004269733905513074 0.9999999088459771
  outer loop
    vertex -343.42703631771946 42.621023325193846 5.045815474964924
    vertex -342.03639673433946 25.242583520677098 5.0537096086247635
    vertex -343.32713591578215 42.862204208974575 5.045712364548387
  endloop
endfacet
facet normal 1.3271964076777347e-06 0.0004269733905513074 0.9999999088459771
  outer loop
    vertex -343.32713591578215 42.862204208974575 5.045712364548387
    vertex -342.03639673433946 25.242583520677098 5.0537096086247635
    vertex -343.293061749236 43.12102317773889 5.045601810502565
  endloop
endfacet
facet normal 1.3271964076777347e-06 0.0004269733905513074 0.9999999088459771
  outer loop
    vertex -343.293061749236 43.12102317773889 5.045601810502565
    vertex -342.03639673433946 25.242583520677098 5.0537096086247635
    vertex -342.58646658887255 150.789784865575 5.000105019556766
  endloop
endfacet
facet normal 1.3271964076777347e-06 0.0004269733905513074 0.9999999088459771
  outer loop
    vertex -342.58646658887255 150.789784865575 5.000105019556766
    vertex -342.03639673433946 25.242583520677098 5.0537096086247635
    vertex -333.26354493113627 149.79326024867873 5.000518135740735
  endloop
endfacet
facet normal 1.3271964076777347e-06 0.0004269733905513074 0.9999999088459771
  outer loop
    vertex -333.26354493113627 149.79326024867873 5.000518135740735
    vertex -342.03639673433946 25.242583520677098 5.0537096086247635
    vertex -334.1456079365375 60.98384914375077 5.038438565240522
  endloop
endfacet
facet normal 1.3271964076777347e-06 0.0004269733905513074 0.9999999088459771
  outer loop
    vertex -333.26354493113627 149.79326024867873 5.000518135740735
    vertex -334.1456079365375 60.98384914375077 5.038438565240522
    vertex -320.3765133196471 67.4874520030808 5.035643425329174
  endloop
endfacet
facet normal 1.3271964076777347e-06 0.0004269733905513074 0.9999999088459771
  outer loop
    vertex -333.26354493113627 149.79326024867873 5.000518135740735
    vertex -320.3765133196471 67.4874520030808 5.035643425329174
    vertex -322.28287678878485 145.55591681857004 5.002312795292296
  endloop
endfacet
facet normal 1.3271964076777347e-06 0.0004269733905513074 0.9999999088459771
  outer loop
    vertex -322.28287678878485 145.55591681857004 5.002312795292296
    vertex -320.3765133196471 67.4874520030808 5.035643425329174
    vertex -312.77307111888666 138.62095158105734 5.00526121980195
  endloop
endfacet
facet normal 1.3271964076777347e-06 0.0004269733905513074 0.9999999088459771
  outer loop
    vertex -312.77307111888666 138.62095158105734 5.00526121980195
    vertex -320.3765133196471 67.4874520030808 5.035643425329174
    vertex -311.2165318643303 74.87831698093399 5.032475565267228
  endloop
endfacet
facet normal 1.3271964076777347e-06 0.0004269733905513074 0.9999999088459771
  outer loop
    vertex -312.77307111888666 138.62095158105734 5.00526121980195
    vertex -311.2165318643303 74.87831698093399 5.032475565267228
    vertex -308.7925878972999 133.6876797723822 5.0073623129011
  endloop
endfacet
facet normal 1.3271964076777347e-06 0.0004269733905513074 0.9999999088459771
  outer loop
    vertex -308.7925878972999 133.6876797723822 5.0073623129011
    vertex -311.2165318643303 74.87831698093399 5.032475565267228
    vertex -309.1404971197171 77.72514933222513 5.031257288188959
  endloop
endfacet
facet normal 1.3271964076777347e-06 0.0004269733905513074 0.9999999088459771
  outer loop
    vertex -308.7925878972999 133.6876797723822 5.0073623129011
    vertex -309.1404971197171 77.72514933222513 5.031257288188959
    vertex -306.1146436579681 81.87445249178187 5.029481630086794
  endloop
endfacet
facet normal 1.3271964076777347e-06 0.0004269733905513074 0.9999999088459771
  outer loop
    vertex -308.7925878972999 133.6876797723822 5.0073623129011
    vertex -306.1146436579681 81.87445249178187 5.029481630086794
    vertex -305.81546837695544 129.9979418729432 5.008933781723182
  endloop
endfacet
facet normal 1.3271964076777347e-06 0.0004269733905513074 0.9999999088459771
  outer loop
    vertex -387.1182882936496 93.24251699854503 5.024735276353856
    vertex -388.6845459052536 107.25101975897282 5.018756096620138
    vertex -388.93897498068424 104.87072540650678 5.019772756740348
  endloop
endfacet
facet normal 1.3271964076777347e-06 0.0004269733905513074 0.9999999088459771
  outer loop
    vertex -388.6845459052536 107.25101975897282 5.018756096620138
    vertex -387.1182882936496 93.24251699854503 5.024735276353856
    vertex -387.688021202805 116.57394056633903 5.014774134566199
  endloop
endfacet
facet normal 1.3271964076777347e-06 0.0004269733905513074 0.9999999088459771
  outer loop
    vertex -387.688021202805 116.57394056633903 5.014774134566199
    vertex -387.1182882936496 93.24251699854503 5.024735276353856
    vertex -383.4506773926752 127.5546077053766 5.010080057671962
  endloop
endfacet
facet normal 1.3271964076777347e-06 0.0004269733905513074 0.9999999088459771
  outer loop
    vertex -383.4506773926752 127.5546077053766 5.010080057671962
    vertex -387.1182882936496 93.24251699854503 5.024735276353856
    vertex -382.35003793059525 82.48175852893307 5.029323505896013
  endloop
endfacet
facet normal 1.3271964076777347e-06 0.0004269733905513074 0.9999999088459771
  outer loop
    vertex -383.4506773926752 127.5546077053766 5.010080057671962
    vertex -382.35003793059525 82.48175852893307 5.029323505896013
    vertex -376.5157115284138 137.06441250450453 5.006010419640651
  endloop
endfacet
facet normal 1.3271964076777347e-06 0.0004269733905513074 0.9999999088459771
  outer loop
    vertex -376.5157115284138 137.06441250450453 5.006010419640651
    vertex -382.35003793059525 82.48175852893307 5.029323505896013
    vertex -374.95917227385735 73.32177790438105 5.0332247651059285
  endloop
endfacet
facet normal 1.3271964076777347e-06 0.0004269733905513074 0.9999999088459771
  outer loop
    vertex -376.5157115284138 137.06441250450453 5.006010419640651
    vertex -374.95917227385735 73.32177790438105 5.0332247651059285
    vertex -367.3557300730971 144.45527748235756 5.002842559578705
  endloop
endfacet
facet normal 1.3271964076777347e-06 0.0004269733905513074 0.9999999088459771
  outer loop
    vertex -367.3557300730971 144.45527748235756 5.002842559578705
    vertex -374.95917227385735 73.32177790438105 5.0332247651059285
    vertex -365.4493666039594 66.38681266686842 5.036173189615583
  endloop
endfacet
facet normal 1.3271964076777347e-06 0.0004269733905513074 0.9999999088459771
  outer loop
    vertex -367.3557300730971 144.45527748235756 5.002842559578705
    vertex -365.4493666039594 66.38681266686842 5.036173189615583
    vertex -356.5949706253198 149.2235274046772 5.000792361914209
  endloop
endfacet
facet normal 1.3271964076777347e-06 0.0004269733905513074 0.9999999088459771
  outer loop
    vertex -356.5949706253198 149.2235274046772 5.000792361914209
    vertex -365.4493666039594 66.38681266686842 5.036173189615583
    vertex -354.14522145874184 61.10818321692726 5.0384120213125385
  endloop
endfacet
facet normal 1.3271964076777347e-06 0.0004269733905513074 0.9999999088459771
  outer loop
    vertex -356.5949706253198 149.2235274046772 5.000792361914209
    vertex -354.14522145874184 61.10818321692726 5.0384120213125385
    vertex -344.9667611584521 151.0442139191627 4.999999544229889
  endloop
endfacet
facet normal 1.3271964076777347e-06 0.0004269733905513074 0.9999999088459771
  outer loop
    vertex -344.9667611584521 151.0442139191627 4.999999544229889
    vertex -354.14522145874184 61.10818321692726 5.0384120213125385
    vertex -346.76752453623413 25.258553815070243 5.053709068869792
  endloop
endfacet
facet normal 1.3271964076777347e-06 0.0004269733905513074 0.9999999088459771
  outer loop
    vertex -344.9667611584521 151.0442139191627 4.999999544229889
    vertex -346.76752453623413 25.258553815070243 5.053709068869792
    vertex -345.2930613415703 43.12102317717747 5.045604464895321
  endloop
endfacet
facet normal 1.3271964076777347e-06 0.0004269733905513074 0.9999999088459771
  outer loop
    vertex -344.9667611584521 151.0442139191627 4.999999544229889
    vertex -345.2930613415703 43.12102317717747 5.045604464895321
    vertex -345.25898717502406 43.379842145941794 5.0454939108495
  endloop
endfacet
facet normal 1.3271964076777347e-06 0.0004269733905513074 0.9999999088459771
  outer loop
    vertex -344.9667611584521 151.0442139191627 4.999999544229889
    vertex -345.25898717502406 43.379842145941794 5.0454939108495
    vertex -345.15908677308687 43.62102302972254 5.045390800432963
  endloop
endfacet
facet normal 1.3271964076777347e-06 0.0004269733905513074 0.9999999088459771
  outer loop
    vertex -344.9667611584521 151.0442139191627 4.999999544229889
    vertex -345.15908677308687 43.62102302972254 5.045390800432963
    vertex -345.00016818305727 43.82812974986027 5.0453021604501975
  endloop
endfacet
facet normal 1.3271964076777347e-06 0.0004269733905513074 0.9999999088459771
  outer loop
    vertex -344.9667611584521 151.0442139191627 4.999999544229889
    vertex -345.00016818305727 43.82812974986027 5.0453021604501975
    vertex -344.7930614442206 43.98704832563767 5.045234031569547
  endloop
endfacet
facet normal 1.3271964076777347e-06 0.0004269733905513074 0.9999999088459771
  outer loop
    vertex -344.9667611584521 151.0442139191627 4.999999544229889
    vertex -344.7930614442206 43.98704832563767 5.045234031569547
    vertex -343.58682869510443 150.89671330509944 5.000060691631349
  endloop
endfacet
facet normal 1.3271964076777347e-06 0.0004269733905513074 0.9999999088459771
  outer loop
    vertex -343.58682869510443 150.89671330509944 5.000060691631349
    vertex -344.7930614442206 43.98704832563767 5.045234031569547
    vertex -344.55188053856847 44.08694871874088 5.045191056661637
  endloop
endfacet
facet normal 1.3271964076777347e-06 0.0004269733905513074 0.9999999088459771
  outer loop
    vertex -343.58682869510443 150.89671330509944 5.000060691631349
    vertex -344.55188053856847 44.08694871874088 5.045191056661637
    vertex -344.2930615462506 44.12102288247309 5.045176164395424
  endloop
endfacet
facet normal 1.3271964076777347e-06 0.0004269733905513074 0.9999999088459771
  outer loop
    vertex -343.58682869510443 150.89671330509944 5.000060691631349
    vertex -344.2930615462506 44.12102288247309 5.045176164395424
    vertex -344.03424255387506 44.08694871888617 5.045190369654239
  endloop
endfacet
facet normal 1.3271964076777347e-06 0.0004269733905513074 0.9999999088459771
  outer loop
    vertex -343.58682869510443 150.89671330509944 5.000060691631349
    vertex -344.03424255387506 44.08694871888617 5.045190369654239
    vertex -343.7930616480534 43.98704832591838 5.045232704373168
  endloop
endfacet
facet normal 1.3271964076777347e-06 0.0004269733905513074 0.9999999088459771
  outer loop
    vertex -343.58682869510443 150.89671330509944 5.000060691631349
    vertex -343.7930616480534 43.98704832591838 5.045232704373168
    vertex -343.5859549089474 43.82812975025726 5.0453002835110805
  endloop
endfacet
facet normal 1.3271964076777347e-06 0.0004269733905513074 0.9999999088459771
  outer loop
    vertex -343.58682869510443 150.89671330509944 5.000060691631349
    vertex -343.5859549089474 43.82812975025726 5.0453002835110805
    vertex -342.58646658887255 150.789784865575 5.000105019556766
  endloop
endfacet
facet normal 1.3271964076777347e-06 0.0004269733905513074 0.9999999088459771
  outer loop
    vertex -342.58646658887255 150.789784865575 5.000105019556766
    vertex -343.5859549089474 43.82812975025726 5.0453002835110805
    vertex -343.4270363185669 43.62102303020873 5.045388501661404
  endloop
endfacet
facet normal 1.3271964076777347e-06 0.0004269733905513074 0.9999999088459771
  outer loop
    vertex -342.58646658887255 150.789784865575 5.000105019556766
    vertex -343.4270363185669 43.62102303020873 5.045388501661404
    vertex -343.32713591622087 43.37984214648409 5.045491346902984
  endloop
endfacet
facet normal 1.3271964076777347e-06 0.0004269733905513074 0.9999999088459771
  outer loop
    vertex -342.58646658887255 150.789784865575 5.000105019556766
    vertex -343.32713591622087 43.37984214648409 5.045491346902984
    vertex -343.293061749236 43.12102317773889 5.045601810502565
  endloop
endfacet
facet normal -0.25881904428371516 -0.9659257383145643 0.00041276812883818853
  outer loop
    vertex -344.03424918922536 44.08481405510747 0.04566667260725988
    vertex -344.2930615462506 44.12102288247309 5.045176164395424
    vertex -344.2930681816009 44.11888821869438 0.04565246734844666
  endloop
endfacet
facet normal 8.473839237956781e-10 -0.9999999088468577 0.00042697339056209745
  outer loop
    vertex -344.2930615462506 44.12102288247309 5.045176164395424
    vertex -344.03424918922536 44.08481405510747 0.04566667260725988
    vertex -344.03424255387506 44.08694871888617 5.045190369654239
  endloop
endfacet
facet normal 0.7071067805868281 0.7071067169299377 -0.00030285424957824595
  outer loop
    vertex -345.0001681818589 42.4139166046591 5.045905991886807
    vertex -344.79306807810326 42.25286336521928 0.046449873977742036
    vertex -345.0001748172093 42.41178194088041 0.04638229483982881
  endloop
endfacet
facet normal 0.4999999992656647 0.8660253249838777 -0.00037043340127293446
  outer loop
    vertex -344.79306807810326 42.25286336521928 0.046449873977742036
    vertex -345.0001681818589 42.4139166046591 5.045905991886807
    vertex -344.7930614427529 42.25499802899798 5.045973571024718
  endloop
endfacet
facet normal 0.8660254042073634 -0.4999999541803378 0.00021233730929354945
  outer loop
    vertex -345.15909340843723 43.61888836594383 0.045867103385984855
    vertex -345.25898717502406 43.379842145941794 5.0454939108495
    vertex -345.2589938103744 43.377707482163096 0.04597021380252356
  endloop
endfacet
facet normal 0.9659258265075671 -0.25881902123909684 0.0001092268717399651
  outer loop
    vertex -345.25898717502406 43.379842145941794 5.0454939108495
    vertex -345.15909340843723 43.61888836594383 0.045867103385984855
    vertex -345.15908677308687 43.62102302972254 5.045390800432963
  endloop
endfacet
facet normal 0.5000000007335067 -0.8660253247030961 0.00036910620466393035
  outer loop
    vertex -344.7930614442206 43.98704832563767 5.045234031569547
    vertex -345.0001748184076 43.82599508608156 0.0457784634032203
    vertex -344.7930680795709 43.98491366185897 0.04571033452257019
  endloop
endfacet
facet normal 0.7071067817850711 -0.7071067165330978 0.000300977310129427
  outer loop
    vertex -345.0001748184076 43.82599508608156 0.0457784634032203
    vertex -344.7930614442206 43.98704832563767 5.045234031569547
    vertex -345.00016818305727 43.82812974986027 5.0453021604501975
  endloop
endfacet
facet normal 0.7071067817850711 -0.7071067165330978 0.000300977310129427
  outer loop
    vertex -345.0001748184076 43.82599508608156 0.0457784634032203
    vertex -345.15908677308687 43.62102302972254 5.045390800432963
    vertex -345.15909340843723 43.61888836594383 0.045867103385984855
  endloop
endfacet
facet normal 0.8660254042073641 -0.49999995418033705 0.00021233730929354916
  outer loop
    vertex -345.15908677308687 43.62102302972254 5.045390800432963
    vertex -345.0001748184076 43.82599508608156 0.0457784634032203
    vertex -345.00016818305727 43.82812974986027 5.0453021604501975
  endloop
endfacet
facet normal 0.9999999999991193 2.8064564849805876e-10 -1.3271966082790035e-06
  outer loop
    vertex -345.29306797692055 43.118888513398765 0.046080767848344965
    vertex -345.2589871745855 42.862204208432274 5.0457149284949026
    vertex -345.2589938099358 42.86006954465356 0.046191231447925564
  endloop
endfacet
facet normal 0.9659258260688844 0.25881902178154587 -0.00011179081870543928
  outer loop
    vertex -345.2589871745855 42.862204208432274 5.0457149284949026
    vertex -345.29306797692055 43.118888513398765 0.046080767848344965
    vertex -345.2930613415703 43.12102317717747 5.045604464895321
  endloop
endfacet
facet normal 0.9659258260688833 0.2588190217815496 -0.0001117908187054409
  outer loop
    vertex -345.2589938099358 42.86006954465356 0.046191231447925564
    vertex -345.15908677223945 42.62102332470763 5.0458177737364815
    vertex -345.1590934075897 42.618888660928924 0.046294076689506164
  endloop
endfacet
facet normal 0.8660254033599835 0.4999999546665288 -0.00021463608125832216
  outer loop
    vertex -345.15908677223945 42.62102332470763 5.0458177737364815
    vertex -345.2589938099358 42.86006954465356 0.046191231447925564
    vertex -345.2589871745855 42.862204208432274 5.0457149284949026
  endloop
endfacet
facet normal 0.9659258265075672 -0.25881902123909667 0.00010922687173996502
  outer loop
    vertex -345.2589938103744 43.377707482163096 0.04597021380252356
    vertex -345.2930613415703 43.12102317717747 5.045604464895321
    vertex -345.29306797692055 43.118888513398765 0.046080767848344965
  endloop
endfacet
facet normal 0.9999999999991193 2.806439732094009e-10 -1.3271966082782886e-06
  outer loop
    vertex -345.2930613415703 43.12102317717747 5.045604464895321
    vertex -345.2589938103744 43.377707482163096 0.04597021380252356
    vertex -345.25898717502406 43.379842145941794 5.0454939108495
  endloop
endfacet
facet normal 0.25881904592086663 -0.9659257381692248 0.000412081121324513
  outer loop
    vertex -344.55188053856847 44.08694871874088 5.045191056661637
    vertex -344.7930680795709 43.98491366185897 0.04571033452257019
    vertex -344.5518871739187 44.08481405496216 0.0456673596146606
  endloop
endfacet
facet normal 0.500000000733502 -0.8660253247030988 0.00036910620466393154
  outer loop
    vertex -344.7930680795709 43.98491366185897 0.04571033452257019
    vertex -344.55188053856847 44.08694871874088 5.045191056661637
    vertex -344.7930614442206 43.98704832563767 5.045234031569547
  endloop
endfacet
facet normal 0.4999999992656684 0.8660253249838752 -0.0003704334012729333
  outer loop
    vertex -344.7930614427529 42.25499802899798 5.045973571024718
    vertex -344.5518871722816 42.152962972251494 0.04649220869667182
    vertex -344.79306807810326 42.25286336521928 0.046449873977742036
  endloop
endfacet
facet normal 0.2588190442837389 0.9659257383145581 -0.00041276812883770894
  outer loop
    vertex -344.5518871722816 42.152962972251494 0.04649220869667182
    vertex -344.7930614427529 42.25499802899798 5.045973571024718
    vertex -344.5518805369313 42.15509763603018 5.046015905743649
  endloop
endfacet
facet normal 0.25881904428374614 0.9659257383145561 -0.00041276812883770796
  outer loop
    vertex -344.5518805369313 42.15509763603018 5.046015905743649
    vertex -344.2930681799061 42.11888880866458 0.04650641395548645
    vertex -344.5518871722816 42.152962972251494 0.04649220869667182
  endloop
endfacet
facet normal -8.473948488164073e-10 0.9999999088468579 -0.00042697339055927696
  outer loop
    vertex -344.2930681799061 42.11888880866458 0.04650641395548645
    vertex -344.5518805369313 42.15509763603018 5.046015905743649
    vertex -344.29306154455577 42.12102347244328 5.046030111002463
  endloop
endfacet
facet normal -8.473948488164073e-10 0.9999999088468579 -0.00042697339055927696
  outer loop
    vertex -344.2930681799061 42.11888880866458 0.04650641395548645
    vertex -344.03424255223797 42.1550976361755 5.046015218736249
    vertex -344.0342491875882 42.15296297239679 0.04649152168927181
  endloop
endfacet
facet normal -0.2588190459208504 0.9659257381692292 -0.0004120811213228612
  outer loop
    vertex -344.03424255223797 42.1550976361755 5.046015218736249
    vertex -344.2930681799061 42.11888880866458 0.04650641395548645
    vertex -344.29306154455577 42.12102347244328 5.046030111002463
  endloop
endfacet
facet normal -0.258819045920857 0.9659257381692274 -0.0004120811213228604
  outer loop
    vertex -344.0342491875882 42.15296297239679 0.04649152168927181
    vertex -343.7930616465858 42.25499802927869 5.0459722438283405
    vertex -343.7930682819361 42.252863365499984 0.046448546781362926
  endloop
endfacet
facet normal -0.500000000733402 0.8660253247031566 -0.00036910620466343015
  outer loop
    vertex -343.7930616465858 42.25499802927869 5.0459722438283405
    vertex -344.0342491875882 42.15296297239679 0.04649152168927181
    vertex -344.03424255223797 42.1550976361755 5.046015218736249
  endloop
endfacet
facet normal -0.5000000007334069 0.8660253247031539 -0.00036910620466342896
  outer loop
    vertex -343.7930682819361 42.252863365499984 0.046448546781362926
    vertex -343.585954907749 42.413916605056095 5.045904114947689
    vertex -343.5859615430993 42.41178194127739 0.0463804179007114
  endloop
endfacet
facet normal -0.7071067817850637 0.7071067165331053 -0.00030097731013304074
  outer loop
    vertex -343.585954907749 42.413916605056095 5.045904114947689
    vertex -343.7930682819361 42.252863365499984 0.046448546781362926
    vertex -343.7930616465858 42.25499802927869 5.0459722438283405
  endloop
endfacet
facet normal -0.7071067817850637 0.7071067165331053 -0.00030097731013304074
  outer loop
    vertex -343.585954907749 42.413916605056095 5.045904114947689
    vertex -343.4270429530697 42.61888866141514 0.04629177791794825
    vertex -343.5859615430993 42.41178194127739 0.0463804179007114
  endloop
endfacet
facet normal -0.8660254042073677 0.49999995418033055 -0.00021233730930136227
  outer loop
    vertex -343.4270429530697 42.61888866141514 0.04629177791794825
    vertex -343.585954907749 42.413916605056095 5.045904114947689
    vertex -343.42703631771946 42.621023325193846 5.045815474964924
  endloop
endfacet
facet normal -0.9659258265075659 0.25881902123910155 -0.00010922687173965991
  outer loop
    vertex -343.32713591578215 42.862204208974575 5.045712364548387
    vertex -343.2930683845864 43.11888851396019 0.04607811345558744
    vertex -343.3271425511325 42.86006954519587 0.04618866750140885
  endloop
endfacet
facet normal -0.9999999999991193 -2.808122416975606e-10 1.327196617225997e-06
  outer loop
    vertex -343.2930683845864 43.11888851396019 0.04607811345558744
    vertex -343.32713591578215 42.862204208974575 5.045712364548387
    vertex -343.293061749236 43.12102317773889 5.045601810502565
  endloop
endfacet
facet normal -0.9999999999991193 -2.808140417417576e-10 1.3271966172267625e-06
  outer loop
    vertex -343.293061749236 43.12102317773889 5.045601810502565
    vertex -343.32714255157117 43.3777074827054 0.04596764985600754
    vertex -343.2930683845864 43.11888851396019 0.04607811345558744
  endloop
endfacet
facet normal -0.9659258260689045 -0.25881902178147076 0.0001117908187091178
  outer loop
    vertex -343.32714255157117 43.3777074827054 0.04596764985600754
    vertex -343.293061749236 43.12102317773889 5.045601810502565
    vertex -343.32713591622087 43.37984214648409 5.045491346902984
  endloop
endfacet
facet normal -0.8660254042073665 0.49999995418033244 -0.00021233730930136306
  outer loop
    vertex -343.42703631771946 42.621023325193846 5.045815474964924
    vertex -343.3271425511325 42.86006954519587 0.04618866750140885
    vertex -343.4270429530697 42.61888866141514 0.04629177791794825
  endloop
endfacet
facet normal -0.9659258265075659 0.25881902123910167 -0.00010922687173965996
  outer loop
    vertex -343.3271425511325 42.86006954519587 0.04618866750140885
    vertex -343.42703631771946 42.621023325193846 5.045815474964924
    vertex -343.32713591578215 42.862204208974575 5.045712364548387
  endloop
endfacet
facet normal 0.23516188308987837 0.9719561287722513 -0.0004153115476403114
  outer loop
    vertex -333.26354493113627 149.79326024867873 5.000518135740735
    vertex -322.282883424767 145.55378195161722 0.0023132510624079283
    vertex -333.2635515671184 149.79112538172598 0.0005185915108475547
  endloop
endfacet
facet normal 0.47870971633048187 0.8779731581806012 -0.00037550655221968605
  outer loop
    vertex -322.282883424767 145.55378195161722 0.0023132510624079283
    vertex -333.26354493113627 149.79326024867873 5.000518135740735
    vertex -322.28287678878485 145.55591681857004 5.002312795292296
  endloop
endfacet
facet normal -0.003375559243012624 -0.9999942116291336 0.00042697543802651
  outer loop
    vertex -342.03640337032147 25.24044865372438 0.05371006439487597
    vertex -346.76752453623413 25.258553815070243 5.053709068869792
    vertex -346.76753117221625 25.2564189481174 0.05370952463990553
  endloop
endfacet
facet normal -0.003375559243012624 -0.9999942116291336 0.00042697543802651
  outer loop
    vertex -346.76752453623413 25.258553815070243 5.053709068869792
    vertex -342.03640337032147 25.24044865372438 0.05371006439487597
    vertex -342.03639673433946 25.242583520677098 5.0537096086247635
  endloop
endfacet
facet normal 0.4787097163304833 0.8779731581806004 -0.0003755065522196857
  outer loop
    vertex -322.28287678878485 145.55591681857004 5.002312795292296
    vertex -312.7730777548688 138.61881671410455 0.005261675572062069
    vertex -322.282883424767 145.55378195161722 0.0023132510624079283
  endloop
endfacet
facet normal 0.6896342735083769 0.724157767778189 -0.00031011140581983435
  outer loop
    vertex -312.7730777548688 138.61881671410455 0.005261675572062069
    vertex -322.28287678878485 145.55591681857004 5.002312795292296
    vertex -312.77307111888666 138.62095158105734 5.00526121980195
  endloop
endfacet
facet normal 0.6896342735083769 0.724157767778189 -0.00031011140581983435
  outer loop
    vertex -312.7730777548688 138.61881671410455 0.005261675572062069
    vertex -305.3822067893451 129.46054398311483 4.009162570165885
    vertex -305.382212098131 129.4588360895526 0.009162934781979182
  endloop
endfacet
facet normal 0.8535613946212024 0.5209922222289826 -0.00022358267959842027
  outer loop
    vertex -305.3822067893451 129.46054398311483 4.009162570165885
    vertex -312.7730777548688 138.61881671410455 0.005261675572062069
    vertex -305.81546970415195 129.9975148995526 4.008933872877205
  endloop
endfacet
facet normal 0.7782559213586672 0.6279471700936593 -0.0002691496553221795
  outer loop
    vertex -305.81546970415195 129.9975148995526 4.008933872877205
    vertex -312.7730777548688 138.61881671410455 0.005261675572062069
    vertex -305.81546837695544 129.9979418729432 5.008933781723182
  endloop
endfacet
facet normal 0.7782559213586672 0.6279471700936593 -0.0002691496553221795
  outer loop
    vertex -305.81546837695544 129.9979418729432 5.008933781723182
    vertex -312.7730777548688 138.61881671410455 0.005261675572062069
    vertex -308.7925878972999 133.6876797723822 5.0073623129011
  endloop
endfacet
facet normal 0.7782559213586672 0.6279471700936593 -0.0002691496553221795
  outer loop
    vertex -308.7925878972999 133.6876797723822 5.0073623129011
    vertex -312.7730777548688 138.61881671410455 0.005261675572062069
    vertex -312.77307111888666 138.62095158105734 5.00526121980195
  endloop
endfacet
facet normal 0.9593197172674868 0.2823219177152352 -0.00012181716323134344
  outer loop
    vertex -300.61396173507654 118.69807761994073 0.013751164324135989
    vertex -298.79326973925623 107.0715771055411 4.018713319321549
    vertex -298.79327504804183 107.0698692119789 0.018713683937643926
  endloop
endfacet
facet normal 0.9997019865327855 0.024411841068212255 -1.1750008504289969e-05
  outer loop
    vertex -298.79326973925623 107.0715771055411 4.018713319321549
    vertex -300.61396173507654 118.69807761994073 0.013751164324135989
    vertex -300.61395642629094 118.69978551350293 4.013750799708042
  endloop
endfacet
facet normal 0.9997019865327855 0.024411841068212706 -1.1750008504290162e-05
  outer loop
    vertex -298.79327504804183 107.0698692119789 0.018713683937643926
    vertex -299.16220195922506 103.62005617324171 4.020187516696468
    vertex -299.1622072680107 103.61834827967951 0.020187881312560774
  endloop
endfacet
facet normal 0.994335782477225 -0.1062842873807939 4.406088768244258e-05
  outer loop
    vertex -299.16220195922506 103.62005617324171 4.020187516696468
    vertex -298.79327504804183 107.0698692119789 0.018713683937643926
    vertex -298.79326973925623 107.0715771055411 4.018713319321549
  endloop
endfacet
facet normal 0.8535613946212002 0.5209922222289862 -0.00022358267959842178
  outer loop
    vertex -305.382212098131 129.4588360895526 0.009162934781979182
    vertex -300.61395642629094 118.69978551350293 4.013750799708042
    vertex -300.61396173507654 118.69807761994073 0.013751164324135989
  endloop
endfacet
facet normal 0.959319717267487 0.28232191771523496 -0.00012181716323134338
  outer loop
    vertex -300.61395642629094 118.69978551350293 4.013750799708042
    vertex -305.382212098131 129.4588360895526 0.009162934781979182
    vertex -305.3822067893451 129.46054398311483 4.009162570165885
  endloop
endfacet
facet normal -0.6896342735083818 -0.7241577677781841 0.0003101114058047183
  outer loop
    vertex -374.95917227385735 73.32177790438105 5.0332247651059285
    vertex -382.3500445665773 82.47962366198031 0.029323961666126285
    vertex -374.95917890983947 73.31964303742828 0.03322522087604199
  endloop
endfacet
facet normal -0.8535613946212044 -0.5209922222289793 0.00022358267957255307
  outer loop
    vertex -382.3500445665773 82.47962366198031 0.029323961666126285
    vertex -374.95917227385735 73.32177790438105 5.0332247651059285
    vertex -382.35003793059525 82.48175852893307 5.029323505896013
  endloop
endfacet
facet normal -0.8535613946212046 -0.520992222228979 0.00022358267957255294
  outer loop
    vertex -382.35003793059525 82.48175852893307 5.029323505896013
    vertex -387.11829492963153 93.24038213159226 0.024735732123969477
    vertex -382.3500445665773 82.47962366198031 0.029323961666126285
  endloop
endfacet
facet normal -0.9593197172674871 -0.2823219177152343 0.00012181716321565611
  outer loop
    vertex -387.11829492963153 93.24038213159226 0.024735732123969477
    vertex -382.35003793059525 82.48175852893307 5.029323505896013
    vertex -387.1182882936496 93.24251699854503 5.024735276353856
  endloop
endfacet
facet normal 0.7241578341776136 -0.6896342110570172 0.00029349438440022594
  outer loop
    vertex -311.2165318643303 74.87831698093399 5.032475565267228
    vertex -320.3765199556291 67.48531713612809 0.035643881099287324
    vertex -311.2165385003124 74.87618211398123 0.032476021037341166
  endloop
endfacet
facet normal 0.531263775619433 -0.8472063918386509 0.00036102952715389293
  outer loop
    vertex -320.3765199556291 67.48531713612809 0.035643881099287324
    vertex -311.2165318643303 74.87831698093399 5.032475565267228
    vertex -320.3765133196471 67.4874520030808 5.035643425329174
  endloop
endfacet
facet normal 0.9719562175015204 -0.23516186220512264 9.911788986376455e-05
  outer loop
    vertex -300.0442288259211 95.36665405214669 0.02371230611179328
    vertex -304.2815673272652 84.3876948066714 4.028406018389935
    vertex -304.2815726360509 84.3859869131092 0.028406383006030503
  endloop
endfacet
facet normal 0.87797323848112 -0.47870967319253904 0.00020323106783665535
  outer loop
    vertex -304.2815673272652 84.3876948066714 4.028406018389935
    vertex -300.0442288259211 95.36665405214669 0.02371230611179328
    vertex -300.0442235171355 95.36836194570893 4.023711941495699
  endloop
endfacet
facet normal 0.8779732384811193 -0.4787096731925407 0.00020323106783665608
  outer loop
    vertex -304.2815726360509 84.3859869131092 0.028406383006030503
    vertex -311.2165318643303 74.87831698093399 5.032475565267228
    vertex -311.2165385003124 74.87618211398123 0.032476021037341166
  endloop
endfacet
facet normal 0.7241578341776136 -0.6896342110570172 0.00029349438440022594
  outer loop
    vertex -311.2165318643303 74.87831698093399 5.032475565267228
    vertex -304.2815726360509 84.3859869131092 0.028406383006030503
    vertex -309.1404971197171 77.72514933222513 5.031257288188959
  endloop
endfacet
facet normal 0.8079778992644697 -0.5892127387854065 0.00025050583828807176
  outer loop
    vertex -309.1404971197171 77.72514933222513 5.031257288188959
    vertex -304.2815726360509 84.3859869131092 0.028406383006030503
    vertex -306.11464498516443 81.8740255183913 4.029481721240816
  endloop
endfacet
facet normal 0.8079778992644697 -0.5892127387854065 0.00025050583828807176
  outer loop
    vertex -306.11464498516443 81.8740255183913 4.029481721240816
    vertex -304.2815726360509 84.3859869131092 0.028406383006030503
    vertex -304.2815673272652 84.3876948066714 4.028406018389935
  endloop
endfacet
facet normal 0.8079778992644697 -0.5892127387854065 0.00025050583828807176
  outer loop
    vertex -306.1146436579681 81.87445249178187 5.029481630086794
    vertex -309.1404971197171 77.72514933222513 5.031257288188959
    vertex -306.11464498516443 81.8740255183913 4.029481721240816
  endloop
endfacet
facet normal -0.42310675351993704 -0.9060797564348746 0.00038743352679566646
  outer loop
    vertex -354.1452280947239 61.10604834997445 0.038412477082651796
    vertex -365.4493666039594 66.38681266686842 5.036173189615583
    vertex -365.44937323994134 66.38467779991566 0.03617364538569472
  endloop
endfacet
facet normal -0.5085309363612627 -0.8610436406510571 0.000368317676668055
  outer loop
    vertex -365.4493666039594 66.38681266686842 5.036173189615583
    vertex -354.1452280947239 61.10604834997445 0.038412477082651796
    vertex -354.14522145874184 61.10818321692726 5.0384120213125385
  endloop
endfacet
facet normal -0.5085309363612609 -0.8610436406510581 0.0003683176766680555
  outer loop
    vertex -365.44937323994134 66.38467779991566 0.03617364538569472
    vertex -374.95917227385735 73.32177790438105 5.0332247651059285
    vertex -374.95917890983947 73.31964303742828 0.03322522087604199
  endloop
endfacet
facet normal -0.6896342735083818 -0.7241577677781841 0.0003101114058047183
  outer loop
    vertex -374.95917227385735 73.32177790438105 5.0332247651059285
    vertex -365.44937323994134 66.38467779991566 0.03617364538569472
    vertex -365.4493666039594 66.38681266686842 5.036173189615583
  endloop
endfacet
facet normal 0.5312637756194324 -0.8472063918386511 0.0003610295271538931
  outer loop
    vertex -320.3765133196471 67.4874520030808 5.035643425329174
    vertex -334.14561457251943 60.98171427679796 0.03843902101063521
    vertex -320.3765199556291 67.48531713612809 0.035643881099287324
  endloop
endfacet
facet normal 0.42708851187742625 -0.9042097402742945 0.00038550670338179685
  outer loop
    vertex -334.14561457251943 60.98171427679796 0.03843902101063521
    vertex -320.3765133196471 67.4874520030808 5.035643425329174
    vertex -334.1456079365375 60.98384914375077 5.038438565240522
  endloop
endfacet
facet normal 0.994335782477227 -0.10628428738077547 4.406088768303133e-05
  outer loop
    vertex -299.1622072680107 103.61834827967951 0.020187881312560774
    vertex -300.0442235171355 95.36836194570893 4.023711941495699
    vertex -300.0442288259211 95.36665405214669 0.02371230611179328
  endloop
endfacet
facet normal 0.9719562175015206 -0.23516186220512153 9.911788986376409e-05
  outer loop
    vertex -300.0442235171355 95.36836194570893 4.023711941495699
    vertex -299.1622072680107 103.61834827967951 0.020187881312560774
    vertex -299.16220195922506 103.62005617324171 4.020187516696468
  endloop
endfacet
facet normal -0.9593197172674873 -0.28232191771523324 0.00012181716321565563
  outer loop
    vertex -387.1182882936496 93.24251699854503 5.024735276353856
    vertex -388.93898161666635 104.86859053955406 0.019773212510460835
    vertex -387.11829492963153 93.24038213159226 0.024735732123969477
  endloop
endfacet
facet normal -0.9997019865327859 -0.024411841068206517 1.1750008506199474e-05
  outer loop
    vertex -388.93898161666635 104.86859053955406 0.019773212510460835
    vertex -387.1182882936496 93.24251699854503 5.024735276353856
    vertex -388.93897498068424 104.87072540650678 5.019772756740348
  endloop
endfacet
facet normal -0.9997019865327857 -0.024411841068207818 1.1750008506200036e-05
  outer loop
    vertex -388.93897498068424 104.87072540650678 5.019772756740348
    vertex -388.6845525412355 107.2488848920201 0.0187565523902516
    vertex -388.93898161666635 104.86859053955406 0.019773212510460835
  endloop
endfacet
facet normal -0.9943357824772237 0.10628428738080534 -4.406088768309792e-05
  outer loop
    vertex -388.6845525412355 107.2488848920201 0.0187565523902516
    vertex -388.93897498068424 104.87072540650678 5.019772756740348
    vertex -388.6845459052536 107.25101975897282 5.018756096620138
  endloop
endfacet
facet normal -0.9943357824772276 0.10628428738076938 -4.406088768355663e-05
  outer loop
    vertex -388.6845459052536 107.25101975897282 5.018756096620138
    vertex -387.6880278387871 116.57180569938627 0.014774590336312187
    vertex -388.6845525412355 107.2488848920201 0.0187565523902516
  endloop
endfacet
facet normal -0.971956217501521 0.23516186220512086 -9.911788986116499e-05
  outer loop
    vertex -387.6880278387871 116.57180569938627 0.014774590336312187
    vertex -388.6845459052536 107.25101975897282 5.018756096620138
    vertex -387.688021202805 116.57394056633903 5.014774134566199
  endloop
endfacet
facet normal -0.9719562175015206 0.23516186220512172 -9.911788986116535e-05
  outer loop
    vertex -387.688021202805 116.57394056633903 5.014774134566199
    vertex -383.4506840286573 127.55247283842384 0.010080513442074961
    vertex -387.6880278387871 116.57180569938627 0.014774590336312187
  endloop
endfacet
facet normal -0.8779732384811204 0.4787096731925383 -0.00020323106784047944
  outer loop
    vertex -383.4506840286573 127.55247283842384 0.010080513442074961
    vertex -387.688021202805 116.57394056633903 5.014774134566199
    vertex -383.4506773926752 127.5546077053766 5.010080057671962
  endloop
endfacet
facet normal -0.8779732384811195 0.47870967319253965 -0.00020323106784048004
  outer loop
    vertex -383.4506773926752 127.5546077053766 5.010080057671962
    vertex -376.5157181643958 137.06227763755172 0.0060108754107643
    vertex -383.4506840286573 127.55247283842384 0.010080513442074961
  endloop
endfacet
facet normal -0.7241578341776131 0.6896342110570175 -0.00029349438441617374
  outer loop
    vertex -376.5157181643958 137.06227763755172 0.0060108754107643
    vertex -383.4506773926752 127.5546077053766 5.010080057671962
    vertex -376.5157115284138 137.06441250450453 5.006010419640651
  endloop
endfacet
facet normal -0.7241578341776131 0.6896342110570175 -0.00029349438441617374
  outer loop
    vertex -376.5157181643958 137.06227763755172 0.0060108754107643
    vertex -367.3557300730971 144.45527748235756 5.002842559578705
    vertex -367.35573670907905 144.4531426154048 0.002843015348816735
  endloop
endfacet
facet normal -0.5209922702023045 0.8535613171123829 -0.0003637565437114459
  outer loop
    vertex -367.3557300730971 144.45527748235756 5.002842559578705
    vertex -376.5157181643958 137.06227763755172 0.0060108754107643
    vertex -376.5157115284138 137.06441250450453 5.006010419640651
  endloop
endfacet
facet normal -0.28232194399314103 0.9593196299833114 -0.0004092292956805162
  outer loop
    vertex -356.5949772613017 149.2213925377244 0.0007928176843215226
    vertex -344.9667611584521 151.0442139191627 4.999999544229889
    vertex -344.966767794434 151.04207905220994 0.0
  endloop
endfacet
facet normal -0.024411843859921536 0.9997018954215222 -0.00042681374742907735
  outer loop
    vertex -344.9667611584521 151.0442139191627 4.999999544229889
    vertex -356.5949772613017 149.2213925377244 0.0007928176843215226
    vertex -356.5949706253198 149.2235274046772 5.000792361914209
  endloop
endfacet
facet normal -0.024411843859921536 0.9997018954215222 -0.00042681374742907735
  outer loop
    vertex -344.9667611584521 151.0442139191627 4.999999544229889
    vertex -343.5868353310865 150.89457843814668 6.114740146231367e-05
    vertex -344.966767794434 151.04207905220994 0.0
  endloop
endfacet
facet normal 0.10628429650536698 0.9943356917810421 -0.00042469598051835965
  outer loop
    vertex -343.5868353310865 150.89457843814668 6.114740146231367e-05
    vertex -344.9667611584521 151.0442139191627 4.999999544229889
    vertex -342.5864732248545 150.7876499986222 0.0001054753268777464
  endloop
endfacet
facet normal 0.10628429650536698 0.9943356917810421 -0.00042469598051835965
  outer loop
    vertex -342.5864732248545 150.7876499986222 0.0001054753268777464
    vertex -344.9667611584521 151.0442139191627 4.999999544229889
    vertex -333.2635515671184 149.79112538172598 0.0005185915108475547
  endloop
endfacet
facet normal 0.23516188308987565 0.9719561287722518 -0.0004153115476403115
  outer loop
    vertex -333.2635515671184 149.79112538172598 0.0005185915108475547
    vertex -344.9667611584521 151.0442139191627 4.999999544229889
    vertex -342.58646658887255 150.789784865575 5.000105019556766
  endloop
endfacet
facet normal 0.23516188308987565 0.9719561287722518 -0.0004153115476403115
  outer loop
    vertex -333.2635515671184 149.79112538172598 0.0005185915108475547
    vertex -342.58646658887255 150.789784865575 5.000105019556766
    vertex -333.26354493113627 149.79326024867873 5.000518135740735
  endloop
endfacet
facet normal 0.10628429650536698 0.9943356917810421 -0.00042469598051835965
  outer loop
    vertex -342.58646658887255 150.789784865575 5.000105019556766
    vertex -344.9667611584521 151.0442139191627 4.999999544229889
    vertex -343.58682869510443 150.89671330509944 5.000060691631349
  endloop
endfacet
facet normal -0.5209922702023024 0.8535613171123844 -0.00036375654371144644
  outer loop
    vertex -367.35573670907905 144.4531426154048 0.002843015348816735
    vertex -356.5949706253198 149.2235274046772 5.000792361914209
    vertex -356.5949772613017 149.2213925377244 0.0007928176843215226
  endloop
endfacet
facet normal -0.2823219439931435 0.9593196299833108 -0.00040922929568051593
  outer loop
    vertex -356.5949706253198 149.2235274046772 5.000792361914209
    vertex -367.35573670907905 144.4531426154048 0.002843015348816735
    vertex -367.3557300730971 144.45527748235756 5.002842559578705
  endloop
endfacet
facet normal -0.7071067805867698 -0.7071067169299959 0.00030285424957629824
  outer loop
    vertex -343.5859615442978 43.82599508647854 0.0457765864641043
    vertex -343.7930616480534 43.98704832591838 5.045232704373168
    vertex -343.7930682834037 43.98491366213969 0.04570900732618966
  endloop
endfacet
facet normal -0.49999999926567906 -0.8660253249838693 0.0003704334012693962
  outer loop
    vertex -343.7930616480534 43.98704832591838 5.045232704373168
    vertex -343.5859615442978 43.82599508647854 0.0457765864641043
    vertex -343.5859549089474 43.82812975025726 5.0453002835110805
  endloop
endfacet
facet normal -0.8660254033599909 -0.4999999546665156 0.00021463608125801023
  outer loop
    vertex -343.4270363185669 43.62102303020873 5.045388501661404
    vertex -343.5859615442978 43.82599508647854 0.0457765864641043
    vertex -343.4270429539172 43.61888836643004 0.04586480461442624
  endloop
endfacet
facet normal -0.7071067805867698 -0.7071067169299959 0.00030285424957629824
  outer loop
    vertex -343.5859615442978 43.82599508647854 0.0457765864641043
    vertex -343.4270363185669 43.62102303020873 5.045388501661404
    vertex -343.5859549089474 43.82812975025726 5.0453002835110805
  endloop
endfacet
facet normal -0.9659258260689036 -0.25881902178147376 0.00011179081870911907
  outer loop
    vertex -343.32713591622087 43.37984214648409 5.045491346902984
    vertex -343.4270429539172 43.61888836643004 0.04586480461442624
    vertex -343.32714255157117 43.3777074827054 0.04596764985600754
  endloop
endfacet
facet normal -0.8660254033599935 -0.49999995466651137 0.00021463608125800842
  outer loop
    vertex -343.4270429539172 43.61888836643004 0.04586480461442624
    vertex -343.32713591622087 43.37984214648409 5.045491346902984
    vertex -343.4270363185669 43.62102303020873 5.045388501661404
  endloop
endfacet
endsolid shutter_burncam
